<?xml version="1.0" encoding="UTF-8" standalone="no"?>
<!DOCTYPE svg PUBLIC "-//W3C//DTD SVG 1.1//EN"
 "http://www.w3.org/Graphics/SVG/1.1/DTD/svg11.dtd">
<!-- Generated by graphviz version 2.47.0 (20210316.0004)
 -->
<!-- Title: dependencies Pages: 1 -->
<svg width="504pt" height="211pt"
 viewBox="0.00 0.00 504.00 211.00" xmlns="http://www.w3.org/2000/svg" xmlns:xlink="http://www.w3.org/1999/xlink">
<g id="graph0" class="graph" transform="scale(1 1) rotate(0) translate(4 207)">
<title>dependencies</title>
<polygon fill="white" stroke="transparent" points="-4,4 -4,-207 500,-207 500,4 -4,4"/>
<text text-anchor="start" x="227.01" y="-42.4" font-family="Times-12" font-weight="bold" font-size="14.00">Legend</text>
<polygon fill="#ffffb3" stroke="transparent" points="14,-10 14,-30 34,-30 34,-10 14,-10"/>
<text text-anchor="start" x="37.63" y="-15.4" font-family="Times-12" font-size="14.00"> &#160;Declarations</text>
<polygon fill="#8dd3c7" stroke="transparent" points="127,-10 127,-30 147,-30 147,-10 127,-10"/>
<text text-anchor="start" x="150.73" y="-15.4" font-family="Times-12" font-size="14.00"> &#160;Module</text>
<polygon fill="#80b1d3" stroke="transparent" points="213,-10 213,-30 233,-30 233,-10 213,-10"/>
<text text-anchor="start" x="236.78" y="-15.4" font-family="Times-12" font-size="14.00"> &#160;Bootstrap</text>
<polygon fill="#fdb462" stroke="transparent" points="310,-10 310,-30 330,-30 330,-10 310,-10"/>
<text text-anchor="start" x="333.67" y="-15.4" font-family="Times-12" font-size="14.00"> &#160;Providers</text>
<polygon fill="#fb8072" stroke="transparent" points="406,-10 406,-30 426,-30 426,-10 406,-10"/>
<text text-anchor="start" x="429.73" y="-15.4" font-family="Times-12" font-size="14.00"> &#160;Exports</text>
<g id="clust1" class="cluster">
<title>cluster_MockEntityModule</title>
<polygon fill="none" stroke="black" stroke-dasharray="1,5" points="79,-70 79,-195 417,-195 417,-70 79,-70"/>
</g>
<g id="clust6" class="cluster">
<title>cluster_MockEntityModule_providers</title>
<polygon fill="none" stroke="black" points="87,-78 87,-130 409,-130 409,-78 87,-78"/>
</g>
<!-- MailService -->
<g id="node1" class="node">
<title>MailService</title>
<ellipse fill="#fdb462" stroke="black" cx="343" cy="-104" rx="58.46" ry="18"/>
<text text-anchor="middle" x="343" y="-99.8" font-family="Times,serif" font-size="14.00">MailService</text>
</g>
<!-- MockEntityModule -->
<g id="node3" class="node">
<title>MockEntityModule</title>
<polygon fill="#8dd3c7" stroke="black" points="325.43,-187 322.43,-191 301.43,-191 298.43,-187 198.57,-187 198.57,-151 325.43,-151 325.43,-187"/>
<text text-anchor="middle" x="262" y="-164.8" font-family="Times,serif" font-size="14.00">MockEntityModule</text>
</g>
<!-- MailService&#45;&gt;MockEntityModule -->
<g id="edge1" class="edge">
<title>MailService&#45;&gt;MockEntityModule</title>
<path fill="none" stroke="black" d="M304.99,-117.78C304.99,-117.78 304.99,-140.55 304.99,-140.55"/>
<polygon fill="black" stroke="black" points="301.49,-140.55 304.99,-150.55 308.49,-140.55 301.49,-140.55"/>
</g>
<!-- MockEntityService -->
<g id="node2" class="node">
<title>MockEntityService</title>
<ellipse fill="#fdb462" stroke="black" cx="181" cy="-104" rx="86.25" ry="18"/>
<text text-anchor="middle" x="181" y="-99.8" font-family="Times,serif" font-size="14.00">MockEntityService</text>
</g>
<!-- MockEntityService&#45;&gt;MockEntityModule -->
<g id="edge2" class="edge">
<title>MockEntityService&#45;&gt;MockEntityModule</title>
<path fill="none" stroke="black" d="M232.96,-118.43C232.96,-118.43 232.96,-140.89 232.96,-140.89"/>
<polygon fill="black" stroke="black" points="229.46,-140.89 232.96,-150.89 236.46,-140.89 229.46,-140.89"/>
</g>
</g>
</svg>
